<svg xmlns="http://www.w3.org/2000/svg" version="1.1" xmlns:xlink="http://www.w3.org/1999/xlink" xmlns:svgjs="http://svgjs.dev/svgjs" width="1500" height="1500" viewBox="0 0 1500 1500"><rect width="1500" height="1500" fill="#000000"></rect><g transform="matrix(0.6666666666666666,0,0,0.6666666666666666,249.39393939393943,609.1805822719524)"><svg viewBox="0 0 396 112" data-background-color="#ffffff" preserveAspectRatio="xMidYMid meet" height="424" width="1500" xmlns="http://www.w3.org/2000/svg" xmlns:xlink="http://www.w3.org/1999/xlink"><g id="tight-bounds" transform="matrix(1,0,0,1,0.2400000000000091,-0.20362693794339748)"><svg viewBox="0 0 395.52 112.4072538758868" height="112.4072538758868" width="395.52"><g><svg viewBox="0 0 535.0960240773563 152.07492573432702" height="112.4072538758868" width="395.52"><g transform="matrix(1,0,0,1,139.5760240773564,46.99335940377027)"><svg viewBox="0 0 395.52 58.08820692678649" height="58.08820692678649" width="395.52"><g id="textblocktransform"><svg viewBox="0 0 395.52 58.08820692678649" height="58.08820692678649" width="395.52" id="textblock"><g><svg viewBox="0 0 395.52 58.08820692678649" height="58.08820692678649" width="395.52"><g transform="matrix(1,0,0,1,0,0)"><svg width="395.52" viewBox="-1.5 -33 228.08 33.5" height="58.08820692678649" data-palette-color="#3d7b7d"><path d="M9.95 0L-1.5 0-1.35-0.8 3-2.9 8.75-30.15 4.8-32.2 4.95-33 18.25-33 23.1-11.85 34.5-33 47.05-33 46.9-32.2 42.65-30.1 39.6-2.9 42.9-0.8 42.75 0 26.9 0 27.05-0.8 31.1-2.85 33.6-24.85 19.85 0.25 17 0.25 11-26.05 6.3-2.85 10.15-0.8 9.95 0ZM56.55 0.5L56.55 0.5Q52.25 0.5 50.27-1.95 48.3-4.4 48.3-8.55L48.3-8.55Q48.3-11.25 49.37-13.9 50.45-16.55 52.4-18.73 54.35-20.9 57.05-22.2 59.75-23.5 63-23.5L63-23.5Q65.65-23.5 67.02-22.3 68.4-21.1 68.4-19.4L68.4-19.4Q68.4-18.05 67.4-16.9 66.4-15.75 63.8-14.6 61.2-13.45 56.45-12.2L56.45-12.2Q56.45-11.8 56.45-11.35L56.45-11.35Q56.45-8.95 57.9-7.5 59.35-6.05 61.2-6.05L61.2-6.05Q62.7-6.05 63.97-6.65 65.25-7.25 66.95-8.5L66.95-8.5 67.1-8.5 68-7.6Q66.9-5.6 65.22-3.75 63.55-1.9 61.37-0.7 59.2 0.5 56.55 0.5ZM61.15-21.25L61.15-21.25Q59.85-21.25 58.5-19.3 57.15-17.35 56.65-14.15L56.65-14.15Q60-15.4 61.32-16.85 62.65-18.3 62.65-19.7L62.65-19.7Q62.65-20.25 62.37-20.75 62.1-21.25 61.15-21.25ZM78.4 0.5L78.4 0.5Q74.1 0.5 72.12-1.95 70.15-4.4 70.15-8.55L70.15-8.55Q70.15-11.25 71.22-13.9 72.3-16.55 74.25-18.73 76.2-20.9 78.9-22.2 81.6-23.5 84.85-23.5L84.85-23.5Q87.5-23.5 88.87-22.3 90.25-21.1 90.25-19.4L90.25-19.4Q90.25-18.05 89.25-16.9 88.25-15.75 85.65-14.6 83.05-13.45 78.3-12.2L78.3-12.2Q78.3-11.8 78.3-11.35L78.3-11.35Q78.3-8.95 79.75-7.5 81.2-6.05 83.05-6.05L83.05-6.05Q84.55-6.05 85.82-6.65 87.1-7.25 88.8-8.5L88.8-8.5 88.95-8.5 89.85-7.6Q88.75-5.6 87.07-3.75 85.4-1.9 83.22-0.7 81.05 0.5 78.4 0.5ZM83-21.25L83-21.25Q81.7-21.25 80.35-19.3 79-17.35 78.5-14.15L78.5-14.15Q81.85-15.4 83.17-16.85 84.5-18.3 84.5-19.7L84.5-19.7Q84.5-20.25 84.22-20.75 83.95-21.25 83-21.25ZM98.79 0.5L98.79 0.5Q95.89 0.5 94.29-1.15 92.69-2.8 92.69-6L92.69-6Q92.69-6.6 92.77-7.28 92.84-7.95 92.94-8.65L92.94-8.65 95.04-20.8 92.14-20.8 92.34-21.75 98.39-24.6 103.14-28.15 104.44-28.15 103.54-23 109.49-23 109.49-20.8 103.14-20.8 101.19-9.8Q101.04-8.85 100.99-8.43 100.94-8 100.94-7.7L100.94-7.7Q100.94-5.45 102.89-5.45L102.89-5.45Q104.04-5.45 105.09-6.38 106.14-7.3 107.09-9.75L107.09-9.75 108.24-9.4Q106.84-4.95 104.47-2.23 102.09 0.5 98.79 0.5ZM126.19 0.25L121.74 0.25 114.74-30.4 111.84-32.2 112.04-33 127.54-33 127.34-32.2 123.54-30.45 128.24-9.7 128.64-9.7 139.84-30.4 136.34-32.2 136.49-33 146.24-33 146.04-32.2 143.24-30.6 126.19 0.25ZM152.64 0.5L152.64 0.5Q148.34 0.5 146.36-1.95 144.39-4.4 144.39-8.55L144.39-8.55Q144.39-11.25 145.46-13.9 146.54-16.55 148.49-18.73 150.44-20.9 153.14-22.2 155.84-23.5 159.09-23.5L159.09-23.5Q161.74-23.5 163.11-22.3 164.49-21.1 164.49-19.4L164.49-19.4Q164.49-18.05 163.49-16.9 162.49-15.75 159.89-14.6 157.29-13.45 152.54-12.2L152.54-12.2Q152.54-11.8 152.54-11.35L152.54-11.35Q152.54-8.95 153.99-7.5 155.44-6.05 157.29-6.05L157.29-6.05Q158.79-6.05 160.06-6.65 161.34-7.25 163.04-8.5L163.04-8.5 163.19-8.5 164.09-7.6Q162.99-5.6 161.31-3.75 159.64-1.9 157.46-0.7 155.29 0.5 152.64 0.5ZM157.24-21.25L157.24-21.25Q155.94-21.25 154.59-19.3 153.24-17.35 152.74-14.15L152.74-14.15Q156.09-15.4 157.41-16.85 158.74-18.3 158.74-19.7L158.74-19.7Q158.74-20.25 158.46-20.75 158.19-21.25 157.24-21.25ZM174.64 0L166.49 0 169.79-19.05 166.89-20.7 166.89-21.5 177.49-23.5 177.64-23.5 177.64-18.7 178.04-18.7Q179.59-20.7 180.51-21.73 181.44-22.75 182.21-23.13 182.99-23.5 183.94-23.5L183.94-23.5Q185.19-23.5 186.01-22.88 186.84-22.25 186.84-21.7L186.84-21.7Q186.84-21.15 186.59-20.6L186.59-20.6 184.49-16.35 184.19-16.35 183.59-16.8Q182.94-17.3 182.36-17.6 181.79-17.9 180.74-17.9L180.74-17.9Q178.94-17.9 177.44-16.4L177.44-16.4 174.64 0ZM192.48 0.5L192.48 0.5Q190.83 0.5 189.66 0.1 188.48-0.3 187.68-0.85L187.68-0.85Q186.18-1.9 186.18-2.85L186.18-2.85Q186.18-3.55 186.73-3.95L186.73-3.95 189.08-5.8 189.38-5.8 190.23-4.75Q191.13-3.6 192.13-2.95 193.13-2.3 194.43-2.3L194.43-2.3Q195.93-2.3 196.58-2.95 197.23-3.6 197.23-4.45L197.23-4.45Q197.23-5.25 196.88-5.83 196.53-6.4 195.51-7.1 194.48-7.8 192.48-8.9L192.48-8.9Q191.08-9.7 190.08-10.48 189.08-11.25 188.56-12.38 188.03-13.5 188.03-15.35L188.03-15.35Q188.03-16.75 188.93-18.18 189.83-19.6 191.38-20.8 192.93-22 194.86-22.75 196.78-23.5 198.78-23.5L198.78-23.5Q200.43-23.5 201.28-23.03 202.13-22.55 202.63-22L202.63-22Q203.58-20.9 203.58-20.1L203.58-20.1Q203.58-19.6 203.38-19.45L203.38-19.45 200.78-17.4 200.43-17.4 199.13-18.85Q198.33-19.75 197.78-20.23 197.23-20.7 196.38-20.7L196.38-20.7Q195.38-20.7 194.86-20.13 194.33-19.55 194.33-18.65L194.33-18.65Q194.33-17.8 195.01-17 195.68-16.2 198.18-14.95L198.18-14.95Q200.08-14 201.51-12.7 202.93-11.4 202.93-8.95L202.93-8.95Q202.93-6.5 201.66-4.35 200.38-2.2 198.03-0.85 195.68 0.5 192.48 0.5ZM214.73 0.5L214.73 0.5Q210.43 0.5 208.46-1.95 206.48-4.4 206.48-8.55L206.48-8.55Q206.48-11.25 207.56-13.9 208.63-16.55 210.58-18.73 212.53-20.9 215.23-22.2 217.93-23.5 221.18-23.5L221.18-23.5Q223.83-23.5 225.21-22.3 226.58-21.1 226.58-19.4L226.58-19.4Q226.58-18.05 225.58-16.9 224.58-15.75 221.98-14.6 219.38-13.45 214.63-12.2L214.63-12.2Q214.63-11.8 214.63-11.35L214.63-11.35Q214.63-8.95 216.08-7.5 217.53-6.05 219.38-6.05L219.38-6.05Q220.88-6.05 222.16-6.65 223.43-7.25 225.13-8.5L225.13-8.5 225.28-8.5 226.18-7.6Q225.08-5.6 223.41-3.75 221.73-1.9 219.56-0.7 217.38 0.5 214.73 0.5ZM219.33-21.25L219.33-21.25Q218.03-21.25 216.68-19.3 215.33-17.35 214.83-14.15L214.83-14.15Q218.18-15.4 219.51-16.85 220.83-18.3 220.83-19.7L220.83-19.7Q220.83-20.25 220.56-20.75 220.28-21.25 219.33-21.25Z" opacity="1" transform="matrix(1,0,0,1,0,0)" fill="#ffffff" class="wordmark-text-0" data-fill-palette-color="primary" id="text-0"></path></svg></g></svg></g></svg></g></svg></g><g><svg viewBox="0 0 125.86279253890837 152.07492573432702" height="152.07492573432702" width="125.86279253890837"><g><svg xmlns="http://www.w3.org/2000/svg" xmlns:xlink="http://www.w3.org/1999/xlink" version="1.1" x="0" y="0" viewBox="44.125 0 423.75000000000006 512" enable-background="new 0 0 512 512" xml:space="preserve" height="152.07492573432702" width="125.86279253890837" class="icon-icon-0" data-fill-palette-color="accent" id="icon-0"><g fill="#111411" data-fill-palette-color="accent"><path d="M225.461 458.656c0-17.656-14.328-32-32-32s-32 14.344-32 32c0 17.688 14.328 32 32 32S225.461 476.344 225.461 458.656zM193.461 469.328c-5.883 0-10.664-4.781-10.664-10.672 0-5.875 4.781-10.656 10.664-10.656s10.664 4.781 10.664 10.656C204.125 464.547 199.344 469.328 193.461 469.328z" fill="#ffffff" data-fill-palette-color="accent"></path><path d="M433.031 310.656l-4.781 2.125c-24.375-127.555-48.984-175.016-52.031-180.555-4.562-9.828-13-16.898-22.75-19.461V42.664C353.469 19.102 334.359 0 310.797 0h-224C63.234 0 44.125 19.102 44.125 42.664v426.664c0 23.562 19.109 42.672 42.672 42.672h224c23.562 0 42.672-19.109 42.672-42.672v-29.609l114.406-51.156L433.031 310.656zM340.406 134.148c1.625-0.734 3.297-1.102 4.953-1.102 4.859 0 9.297 3.203 11.609 8.359l0.219 0.492 0.266 0.461c0.266 0.453 25.672 45.773 50.797 179.391l-129.062 57.719-6.469-7.172-121.5-65.797c-4.023-2.188-6.945-5.781-8.227-10.156-1.289-4.375-0.773-9 1.445-13.031 3.062-5.578 8.93-9.031 15.312-9.031 2.883 0 5.641 0.688 8.188 2.062l53.266 28.875-87.844-196.406c-1.836-4.102-0.648-8.117 0.219-10.141 1.57-3.641 4.461-6.625 7.938-8.18 1.945-0.867 4.172-1.328 6.445-1.328 4.852 0 10.766 2.258 13.016 7.297l37.477 83.781 0 0 17.953 40.141 0.008-0.008c0.023 0.062 0.047 0.117 0.07 0.18 2.406 5.375 8.711 7.781 14.094 5.375 5.375-2.398 7.789-8.711 5.383-14.086-0.031-0.062-0.062-0.109-0.086-0.172h0.008l-18.172-40.633c-1.719-3.852-0.336-7.977 0.648-10.078 1.805-3.859 5.031-7.125 8.625-8.734 0.312-0.133 0.633-0.258 0.945-0.375l0.516-0.203c2.008-0.852 4.344-1.305 6.758-1.305 5.148 0 11.305 2.141 13.438 6.922l18.156 40.578h0.008c0.023 0.055 0.039 0.117 0.062 0.172 2.406 5.375 8.727 7.789 14.102 5.383s7.781-8.711 5.375-14.094c-0.031-0.055-0.062-0.109-0.094-0.164l0.016-0.008-10.828-24.211 0 0c-2.75-6.164 1.906-15.516 9.406-18.867 2.062-0.922 4.469-1.406 6.969-1.406 5.094 0 11.219 2.156 13.375 6.969L310 162.406l0 0 6 13.422h0.016c0.016 0.055 0.047 0.117 0.078 0.172 2.406 5.383 8.703 7.789 14.094 5.383 5.375-2.406 7.781-8.711 5.375-14.094-0.031-0.055-0.062-0.109-0.094-0.164h0.016l-6.016-13.43 0 0C326.875 147.867 332.594 137.641 340.406 134.148zM141.062 325.25l31.062 16.828v20.578h-64v-64h13.508c0.234 1.25 0.531 2.484 0.891 3.719C125.422 312.219 132.008 320.359 141.062 325.25zM108.125 245.328v-64h34.297l28.625 64H108.125zM113.883 117.523L118.57 128h-10.445V64h64v12.609c-6.375-5.539-14.945-8.781-24.164-8.781-5.25 0-10.492 1.102-15.156 3.188-8.305 3.719-15.172 10.727-18.828 19.234C110.094 99.289 110.062 108.977 113.883 117.523zM225.461 128V64h64.008v59.391c-4.672 0.273-9.25 1.359-13.344 3.188-0.953 0.43-1.875 0.914-2.797 1.422H225.461zM65.461 42.664c0-11.766 9.57-21.336 21.336-21.336h224c11.766 0 21.328 9.57 21.328 21.336v71.828c-0.141 0.062-0.281 0.117-0.438 0.188-6.984 3.117-13.281 8.695-17.688 15.453-1.031-0.727-2.094-1.398-3.203-2.016V53.328c0-5.891-4.766-10.664-10.672-10.664h-85.328c-5.891 0-10.672 4.773-10.672 10.664v85.336c0 1.016 0.148 1.992 0.414 2.93l-11.078-24.766v-63.5c0-5.891-4.773-10.664-10.664-10.664H97.461c-5.891 0-10.664 4.773-10.664 10.664v85.336c0 5.891 4.773 10.664 10.664 10.664h30.648L132.883 160H97.461c-5.891 0-10.664 4.773-10.664 10.664V256c0 5.891 4.773 10.664 10.664 10.664h32.656c-1.648 1.945-3.117 4.07-4.375 6.367-0.773 1.406-1.445 2.844-2.031 4.297h-26.25c-5.891 0-10.664 4.781-10.664 10.672v85.328c0 5.891 4.773 10.672 10.664 10.672h85.336c5.891 0 10.664-4.781 10.664-10.672v-19.703l10.664 5.781v13.922c0 5.891 4.781 10.672 10.672 10.672h34.727l8.836 4.781-1.828 0.812 7.031 15.734H65.461V42.664zM332.125 469.328c0 11.766-9.562 21.328-21.328 21.328H193.461 86.797c-11.766 0-21.336-9.562-21.336-21.328v-42.672h128 79.648l18.266 40.844 40.75-18.234V469.328zM302.125 439.312l-17.406-38.953 137.531-61.516 17.438 38.938L302.125 439.312z" fill="#ffffff" data-fill-palette-color="accent"></path></g></svg></g></svg></g></svg></g><defs></defs></svg><rect width="395.52" height="112.4072538758868" fill="none" stroke="none" visibility="hidden"></rect></g></svg></g></svg>